<svg width="964" height="966" viewBox="0 0 964 966" fill="none" xmlns="http://www.w3.org/2000/svg">
<circle cx="483" cy="483" r="483" fill="black"/>
<rect x="471" y="690" width="376" height="40" rx="10" transform="rotate(-90 471 690)" fill="white"/>
<rect x="791" y="317" width="387" height="39" rx="10" transform="rotate(90 791 317)" fill="white"/>
<rect x="691" y="518" width="166" height="41" rx="10" transform="rotate(90 691 518)" fill="white"/>
<rect x="620" y="294" width="150" height="40" rx="10" transform="rotate(90 620 294)" fill="white"/>
<rect x="343" y="374" width="250" height="40" rx="10" transform="rotate(90 343 374)" fill="white"/>
<rect x="261" y="454" width="241" height="40" rx="10" transform="rotate(90 261 454)" fill="white"/>
<rect x="421" y="704" width="200" height="40" rx="10" transform="rotate(180 421 704)" fill="white"/>
<rect x="381" y="704" width="216" height="41" rx="10" transform="rotate(-90 381 704)" fill="white"/>
<path d="M141 304C141 298.477 145.477 294 151 294H411C416.523 294 421 298.477 421 304V324C421 329.523 416.523 334 411 334H151C145.477 334 141 329.523 141 324V304Z" fill="white"/>
<path d="M141 384C141 378.477 145.477 374 151 374H316C321.523 374 326 378.477 326 384V403C326 408.523 321.523 413 316 413H151C145.477 413 141 408.523 141 403V384Z" fill="white"/>
<path d="M172 314C177.523 314 182 318.477 182 324V397C182 402.523 177.523 407 172 407H151C145.477 407 141 402.523 141 397V324C141 318.477 145.477 314 151 314H172Z" fill="white"/>
<path d="M244 487C244 492.523 239.523 497 234 497H151C145.477 497 141 492.523 141 487V464C141 458.477 145.477 454 151 454H192.5H234C239.523 454 244 458.477 244 464V487Z" fill="white"/>
<path d="M597 324C597 329.523 592.523 334 587 334H481C475.477 334 471 329.523 471 324V304C471 298.477 475.477 294 481 294H534H587C592.523 294 597 298.477 597 304V324Z" fill="white"/>
<path d="M581 694C581 699.523 576.523 704 571 704H481C475.477 704 471 699.523 471 694V674C471 668.477 475.477 664 481 664H526H571C576.523 664 581 668.477 581 674V694Z" fill="white"/>
<path d="M777 694C777 699.523 772.523 704 767 704H660C654.477 704 650 699.523 650 694V657C650 651.477 654.477 647 660 647H713.5H767C772.523 647 777 651.477 777 657V694Z" fill="white"/>
<path d="M682 434C682 439.523 677.523 444 672 444H595C589.477 444 585 439.523 585 434V414C585 408.477 589.477 404 595 404H633.5H672C677.523 404 682 408.477 682 414V434Z" fill="white"/>
<path d="M791 324C791 329.523 786.523 334 781 334H701C695.477 334 691 329.523 691 324V304C691 298.477 695.477 294 701 294H741H781C786.523 294 791 298.477 791 304V324Z" fill="white"/>
<path d="M691 559C691 564.523 686.523 569 681 569H592C586.477 569 582 564.523 582 559V522C582 516.477 586.477 512 592 512H636.5H681C686.523 512 691 516.477 691 522V559Z" fill="white"/>
</svg>
